<svg width="42" height="33" viewBox="0 0 42 33" fill="none" xmlns="http://www.w3.org/2000/svg">
<path d="M9.9174 15.1503C8.42931 15.1553 6.96757 15.5433 5.67283 16.2768C7.49569 11.5585 10.519 7.39801 14.4436 4.20697C14.6681 4.02205 14.8541 3.79471 14.9908 3.53794C15.1274 3.28116 15.2122 2.99998 15.2402 2.71044C15.2683 2.4209 15.239 2.12868 15.1541 1.85046C15.0691 1.57224 14.9303 1.31347 14.7453 1.08893C14.5604 0.864379 14.3331 0.678452 14.0763 0.541764C13.8195 0.405076 13.5383 0.320302 13.2488 0.292283C12.9593 0.264263 12.6671 0.293547 12.3888 0.378461C12.1106 0.463376 11.8518 0.602257 11.6273 0.787178C3.58072 7.32502 0 16.3774 0 21.9899C0.0138643 23.9744 0.605243 25.9119 1.70193 27.5658C2.79862 29.2198 4.35316 30.5186 6.17574 31.3038C7.35529 31.8752 8.64702 32.1775 9.95763 32.1889C11.1112 32.245 12.2642 32.0662 13.3466 31.6634C14.4291 31.2605 15.4184 30.6421 16.2547 29.8455C17.0909 29.0488 17.7567 28.0907 18.2116 27.0291C18.6665 25.9675 18.9011 24.8246 18.9011 23.6696C18.9011 22.5147 18.6665 21.3717 18.2116 20.3101C17.7567 19.2485 17.0909 18.2904 16.2547 17.4938C15.4184 16.6972 14.4291 16.0787 13.3466 15.6759C12.2642 15.273 11.1112 15.0942 9.95763 15.1503H9.9174Z" fill="#D9D9D9"/>
<path d="M32.3276 15.1504C30.8392 15.1537 29.377 15.5417 28.083 16.277C29.9051 11.5636 32.9205 7.40447 36.8336 4.2071C37.0786 4.03056 37.2848 3.80575 37.4396 3.54653C37.5944 3.28731 37.6945 2.99915 37.7337 2.69979C37.773 2.40043 37.7506 2.0962 37.6679 1.80583C37.5852 1.51545 37.4439 1.24508 37.2528 1.01134C37.0617 0.777604 36.8247 0.585448 36.5566 0.446702C36.2884 0.307957 35.9947 0.225557 35.6935 0.204571C35.3923 0.183585 35.09 0.224458 34.8052 0.324675C34.5204 0.424893 34.2591 0.582334 34.0375 0.78731C25.9909 7.32515 22.4102 16.3775 22.4102 21.99C22.4197 23.952 22.9938 25.8698 24.064 27.5143C25.1341 29.1587 26.6551 30.4604 28.4451 31.2637C29.6545 31.8518 30.9827 32.1546 32.3276 32.1488C33.4812 32.2049 34.6341 32.0261 35.7166 31.6233C36.799 31.2204 37.7883 30.602 38.6246 29.8054C39.4609 29.0088 40.1266 28.0506 40.5816 26.989C41.0365 25.9274 41.271 24.7845 41.271 23.6295C41.271 22.4746 41.0365 21.3316 40.5816 20.27C40.1266 19.2084 39.4609 18.2503 38.6246 17.4537C37.7883 16.6571 36.799 16.0386 35.7166 15.6358C34.6341 15.2329 33.4812 15.0541 32.3276 15.1102V15.1504Z" fill="#D9D9D9"/>
</svg>
