<svg width="32" height="33" viewBox="0 0 32 33" fill="none" xmlns="http://www.w3.org/2000/svg">
<rect y="0.710938" width="32" height="32" rx="16" fill="white"/>
<path d="M13.2607 22.7109C18.8327 22.7109 21.8799 18.0946 21.8799 14.0918C21.8799 13.9606 21.8772 13.8301 21.8711 13.7001C22.4626 13.2726 22.9768 12.7389 23.3824 12.1317C22.8396 12.3728 22.2555 12.5352 21.6428 12.6084C22.2681 12.2334 22.7484 11.6399 22.975 10.9326C22.3896 11.2797 21.7413 11.532 21.0515 11.668C20.4985 11.0792 19.7112 10.7109 18.8401 10.7109C17.167 10.7109 15.8103 12.0677 15.8103 13.7399C15.8103 13.9777 15.837 14.2088 15.8887 14.4307C13.3712 14.3042 11.1387 13.0986 9.64477 11.2658C9.38431 11.7133 9.23434 12.2336 9.23434 12.7883C9.23434 13.8392 9.76921 14.767 10.5825 15.31C10.0856 15.2947 9.61874 15.158 9.2105 14.9309C9.20982 14.9435 9.20982 14.9563 9.20982 14.9696C9.20982 16.4368 10.2542 17.6617 11.6402 17.9393C11.3857 18.0086 11.118 18.0459 10.8416 18.0459C10.6465 18.0459 10.4567 18.0264 10.2722 17.9913C10.6577 19.1948 11.7762 20.0707 13.1022 20.0954C12.0652 20.908 10.759 21.3922 9.3398 21.3922C9.09546 21.3922 8.85431 21.3782 8.61719 21.3502C9.9578 22.2093 11.5496 22.7109 13.2607 22.7109Z" fill="black"/>
</svg>
