<svg width="864" height="153" viewBox="0 0 864 153" fill="none" xmlns="http://www.w3.org/2000/svg">
<rect width="864" height="152" transform="translate(0 0.199463)" fill="#F03023"/>
<path d="M122.514 74.7195H128.114V60.0195C128.114 59.2995 128.134 58.5461 128.174 57.7595L124.874 60.4995C124.661 60.6728 124.447 60.7995 124.234 60.8795C124.021 60.9461 123.814 60.9795 123.614 60.9795C123.267 60.9795 122.954 60.9061 122.674 60.7595C122.407 60.5995 122.207 60.4328 122.074 60.2595L120.114 57.6595L129.194 50.0395H134.314V74.7195H139.114V79.1995H122.514V74.7195ZM160.637 52.6195C160.637 53.0461 160.571 53.4328 160.437 53.7795C160.304 54.1261 160.091 54.4328 159.797 54.6995C159.517 54.9528 159.144 55.1528 158.677 55.2995C158.211 55.4328 157.651 55.4995 156.997 55.4995H150.037L149.217 60.3195C149.764 60.2261 150.291 60.1595 150.797 60.1195C151.304 60.0661 151.797 60.0395 152.277 60.0395C153.811 60.0395 155.164 60.2728 156.337 60.7395C157.511 61.2061 158.497 61.8461 159.297 62.6595C160.097 63.4595 160.697 64.4061 161.097 65.4995C161.511 66.5795 161.717 67.7395 161.717 68.9795C161.717 70.5395 161.437 71.9661 160.877 73.2595C160.331 74.5395 159.564 75.6461 158.577 76.5795C157.591 77.5128 156.411 78.2395 155.037 78.7595C153.677 79.2661 152.184 79.5195 150.557 79.5195C149.611 79.5195 148.704 79.4195 147.837 79.2195C146.984 79.0195 146.177 78.7528 145.417 78.4195C144.671 78.0728 143.977 77.6795 143.337 77.2395C142.697 76.7861 142.117 76.3061 141.597 75.7995L143.517 73.2395C143.717 72.9728 143.951 72.7728 144.217 72.6395C144.484 72.4928 144.771 72.4195 145.077 72.4195C145.477 72.4195 145.851 72.5328 146.197 72.7595C146.557 72.9728 146.944 73.2128 147.357 73.4795C147.784 73.7328 148.277 73.9661 148.837 74.1795C149.397 74.3928 150.091 74.4995 150.917 74.4995C151.744 74.4995 152.451 74.3661 153.037 74.0995C153.624 73.8195 154.097 73.4461 154.457 72.9795C154.831 72.4995 155.097 71.9461 155.257 71.3195C155.431 70.6795 155.517 69.9995 155.517 69.2795C155.517 67.8661 155.117 66.7928 154.317 66.0595C153.517 65.3128 152.384 64.9395 150.917 64.9395C149.611 64.9395 148.331 65.1861 147.077 65.6795L143.237 64.6395L145.717 50.0595H160.637V52.6195Z" fill="white"/>
<path d="M126.644 103.827V107.199H125.03V103.827L121.868 98.5235H123.29C123.43 98.5235 123.54 98.5575 123.62 98.6255C123.704 98.6935 123.774 98.7795 123.83 98.8835L125.42 101.781C125.512 101.953 125.592 102.117 125.66 102.273C125.728 102.425 125.79 102.575 125.846 102.723C125.898 102.571 125.956 102.419 126.02 102.267C126.088 102.111 126.168 101.949 126.26 101.781L127.838 98.8835C127.882 98.7955 127.948 98.7135 128.036 98.6375C128.124 98.5615 128.236 98.5235 128.372 98.5235H129.8L126.644 103.827ZM136.109 98.5235V99.8075H132.263V102.213H135.293V103.455H132.263V105.909H136.109V107.199H130.637V98.5235H136.109ZM145.13 107.199H143.882C143.742 107.199 143.626 107.165 143.534 107.097C143.446 107.025 143.382 106.937 143.342 106.833L142.694 105.063H139.1L138.452 106.833C138.42 106.925 138.356 107.009 138.26 107.085C138.168 107.161 138.054 107.199 137.918 107.199H136.664L140.072 98.5235H141.722L145.13 107.199ZM139.514 103.923H142.28L141.224 101.037C141.176 100.909 141.122 100.759 141.062 100.587C141.006 100.411 140.95 100.221 140.894 100.017C140.838 100.221 140.782 100.411 140.726 100.587C140.674 100.763 140.622 100.917 140.57 101.049L139.514 103.923ZM147.692 103.809V107.199H146.078V98.5235H148.724C149.316 98.5235 149.822 98.5855 150.242 98.7095C150.666 98.8295 151.012 98.9995 151.28 99.2195C151.552 99.4395 151.75 99.7035 151.874 100.011C152.002 100.315 152.066 100.651 152.066 101.019C152.066 101.311 152.022 101.587 151.934 101.847C151.85 102.107 151.726 102.343 151.562 102.555C151.402 102.767 151.202 102.953 150.962 103.113C150.726 103.273 150.456 103.401 150.152 103.497C150.356 103.613 150.532 103.779 150.68 103.995L152.852 107.199H151.4C151.26 107.199 151.14 107.171 151.04 107.115C150.944 107.059 150.862 106.979 150.794 106.875L148.97 104.097C148.902 103.993 148.826 103.919 148.742 103.875C148.662 103.831 148.542 103.809 148.382 103.809H147.692ZM147.692 102.651H148.7C149.004 102.651 149.268 102.613 149.492 102.537C149.72 102.461 149.906 102.357 150.05 102.225C150.198 102.089 150.308 101.929 150.38 101.745C150.452 101.561 150.488 101.359 150.488 101.139C150.488 100.699 150.342 100.361 150.05 100.125C149.762 99.8895 149.32 99.7715 148.724 99.7715H147.692V102.651ZM158.537 100.101C158.493 100.189 158.441 100.251 158.381 100.287C158.325 100.323 158.257 100.341 158.177 100.341C158.097 100.341 158.007 100.311 157.907 100.251C157.807 100.187 157.689 100.117 157.553 100.041C157.417 99.9655 157.257 99.8975 157.073 99.8375C156.893 99.7735 156.679 99.7415 156.431 99.7415C156.207 99.7415 156.011 99.7695 155.843 99.8255C155.679 99.8775 155.539 99.9515 155.423 100.047C155.311 100.143 155.227 100.259 155.171 100.395C155.115 100.527 155.087 100.673 155.087 100.833C155.087 101.037 155.143 101.207 155.255 101.343C155.371 101.479 155.523 101.595 155.711 101.691C155.899 101.787 156.113 101.873 156.353 101.949C156.593 102.025 156.837 102.107 157.085 102.195C157.337 102.279 157.583 102.379 157.823 102.495C158.063 102.607 158.277 102.751 158.465 102.927C158.653 103.099 158.803 103.311 158.915 103.563C159.031 103.815 159.089 104.121 159.089 104.481C159.089 104.873 159.021 105.241 158.885 105.585C158.753 105.925 158.557 106.223 158.297 106.479C158.041 106.731 157.727 106.931 157.355 107.079C156.983 107.223 156.557 107.295 156.077 107.295C155.801 107.295 155.529 107.267 155.261 107.211C154.993 107.159 154.735 107.083 154.487 106.983C154.243 106.883 154.013 106.763 153.797 106.623C153.585 106.483 153.395 106.327 153.227 106.155L153.695 105.381C153.739 105.325 153.791 105.279 153.851 105.243C153.915 105.203 153.985 105.183 154.061 105.183C154.161 105.183 154.269 105.225 154.385 105.309C154.501 105.389 154.637 105.479 154.793 105.579C154.953 105.679 155.139 105.771 155.351 105.855C155.567 105.935 155.825 105.975 156.125 105.975C156.585 105.975 156.941 105.867 157.193 105.651C157.445 105.431 157.571 105.117 157.571 104.709C157.571 104.481 157.513 104.295 157.397 104.151C157.285 104.007 157.135 103.887 156.947 103.791C156.759 103.691 156.545 103.607 156.305 103.539C156.065 103.471 155.821 103.397 155.573 103.317C155.325 103.237 155.081 103.141 154.841 103.029C154.601 102.917 154.387 102.771 154.199 102.591C154.011 102.411 153.859 102.187 153.743 101.919C153.631 101.647 153.575 101.313 153.575 100.917C153.575 100.601 153.637 100.293 153.761 99.9935C153.889 99.6935 154.073 99.4275 154.313 99.1955C154.557 98.9635 154.855 98.7775 155.207 98.6375C155.559 98.4975 155.961 98.4275 156.413 98.4275C156.925 98.4275 157.397 98.5075 157.829 98.6675C158.261 98.8275 158.629 99.0515 158.933 99.3395L158.537 100.101Z" fill="white"/>
<line opacity="0.3" x1="226.951" y1="42.6995" x2="226.951" y2="109.699" stroke="#DCDCDC"/>
<path d="M261.531 49.7395C262.971 49.7395 264.264 49.9528 265.411 50.3795C266.571 50.7928 267.557 51.3728 268.371 52.1195C269.184 52.8661 269.804 53.7595 270.231 54.7995C270.671 55.8261 270.891 56.9595 270.891 58.1995C270.891 59.2661 270.737 60.2528 270.431 61.1595C270.137 62.0661 269.731 62.9328 269.211 63.7595C268.691 64.5728 268.084 65.3661 267.391 66.1395C266.711 66.8995 265.984 67.6728 265.211 68.4595L259.511 74.2995C260.244 74.0861 260.964 73.9195 261.671 73.7995C262.391 73.6661 263.064 73.5995 263.691 73.5995H269.131C269.797 73.5995 270.324 73.7861 270.711 74.1595C271.097 74.5195 271.291 74.9995 271.291 75.5995V79.1995H250.811V77.1995C250.811 76.8128 250.891 76.3995 251.051 75.9595C251.211 75.5195 251.491 75.1195 251.891 74.7595L260.291 66.2995C261.011 65.5795 261.637 64.8928 262.171 64.2395C262.704 63.5861 263.144 62.9461 263.491 62.3195C263.837 61.6795 264.097 61.0461 264.271 60.4195C264.444 59.7795 264.531 59.1061 264.531 58.3995C264.531 57.2395 264.251 56.3528 263.691 55.7395C263.144 55.1128 262.304 54.7995 261.171 54.7995C260.704 54.7995 260.277 54.8661 259.891 54.9995C259.504 55.1328 259.157 55.3128 258.851 55.5395C258.544 55.7661 258.277 56.0328 258.051 56.3395C257.837 56.6461 257.664 56.9795 257.531 57.3395C257.317 57.9395 257.044 58.3728 256.711 58.6395C256.391 58.9061 255.951 59.0395 255.391 59.0395C255.257 59.0395 255.111 59.0328 254.951 59.0195C254.804 59.0061 254.651 58.9861 254.491 58.9595L251.211 58.3795C251.424 56.9261 251.831 55.6595 252.431 54.5795C253.044 53.4995 253.797 52.5995 254.691 51.8795C255.597 51.1595 256.631 50.6261 257.791 50.2795C258.951 49.9195 260.197 49.7395 261.531 49.7395ZM284.734 49.7395C286.174 49.7395 287.467 49.9528 288.614 50.3795C289.774 50.7928 290.761 51.3728 291.574 52.1195C292.387 52.8661 293.007 53.7595 293.434 54.7995C293.874 55.8261 294.094 56.9595 294.094 58.1995C294.094 59.2661 293.941 60.2528 293.634 61.1595C293.341 62.0661 292.934 62.9328 292.414 63.7595C291.894 64.5728 291.287 65.3661 290.594 66.1395C289.914 66.8995 289.187 67.6728 288.414 68.4595L282.714 74.2995C283.447 74.0861 284.167 73.9195 284.874 73.7995C285.594 73.6661 286.267 73.5995 286.894 73.5995H292.334C293.001 73.5995 293.527 73.7861 293.914 74.1595C294.301 74.5195 294.494 74.9995 294.494 75.5995V79.1995H274.014V77.1995C274.014 76.8128 274.094 76.3995 274.254 75.9595C274.414 75.5195 274.694 75.1195 275.094 74.7595L283.494 66.2995C284.214 65.5795 284.841 64.8928 285.374 64.2395C285.907 63.5861 286.347 62.9461 286.694 62.3195C287.041 61.6795 287.301 61.0461 287.474 60.4195C287.647 59.7795 287.734 59.1061 287.734 58.3995C287.734 57.2395 287.454 56.3528 286.894 55.7395C286.347 55.1128 285.507 54.7995 284.374 54.7995C283.907 54.7995 283.481 54.8661 283.094 54.9995C282.707 55.1328 282.361 55.3128 282.054 55.5395C281.747 55.7661 281.481 56.0328 281.254 56.3395C281.041 56.6461 280.867 56.9795 280.734 57.3395C280.521 57.9395 280.247 58.3728 279.914 58.6395C279.594 58.9061 279.154 59.0395 278.594 59.0395C278.461 59.0395 278.314 59.0328 278.154 59.0195C278.007 59.0061 277.854 58.9861 277.694 58.9595L274.414 58.3795C274.627 56.9261 275.034 55.6595 275.634 54.5795C276.247 53.4995 277.001 52.5995 277.894 51.8795C278.801 51.1595 279.834 50.6261 280.994 50.2795C282.154 49.9195 283.401 49.7395 284.734 49.7395ZM297.257 75.6795C297.257 75.2528 297.337 74.8595 297.497 74.4995C297.657 74.1261 297.884 73.8061 298.177 73.5395C298.484 73.2595 298.837 73.0395 299.237 72.8795C299.65 72.7195 300.11 72.6395 300.617 72.6395C301.217 72.6395 301.737 72.7461 302.177 72.9595C302.617 73.1595 302.984 73.4395 303.277 73.7995C303.57 74.1461 303.784 74.5528 303.917 75.0195C304.064 75.4728 304.137 75.9528 304.137 76.4595C304.137 77.1261 304.03 77.8395 303.817 78.5995C303.604 79.3461 303.284 80.0995 302.857 80.8595C302.444 81.6195 301.924 82.3661 301.297 83.0995C300.67 83.8328 299.95 84.4995 299.137 85.0995L298.057 84.1395C297.91 83.9928 297.797 83.8528 297.717 83.7195C297.65 83.5995 297.617 83.4461 297.617 83.2595C297.617 83.1261 297.664 82.9795 297.757 82.8195C297.85 82.6728 297.964 82.5395 298.097 82.4195C298.257 82.2595 298.444 82.0661 298.657 81.8395C298.87 81.6128 299.084 81.3595 299.297 81.0795C299.51 80.7995 299.704 80.4928 299.877 80.1595C300.064 79.8261 300.204 79.4728 300.297 79.0995C299.83 79.0595 299.41 78.9461 299.037 78.7595C298.664 78.5728 298.344 78.3261 298.077 78.0195C297.824 77.7128 297.624 77.3661 297.477 76.9795C297.33 76.5795 297.257 76.1461 297.257 75.6795ZM327.75 64.6195C327.75 67.1661 327.477 69.3728 326.93 71.2395C326.383 73.1061 325.623 74.6528 324.65 75.8795C323.69 77.1061 322.543 78.0195 321.21 78.6195C319.89 79.2195 318.457 79.5195 316.91 79.5195C315.363 79.5195 313.93 79.2195 312.61 78.6195C311.303 78.0195 310.17 77.1061 309.21 75.8795C308.25 74.6528 307.497 73.1061 306.95 71.2395C306.417 69.3728 306.15 67.1661 306.15 64.6195C306.15 62.0728 306.417 59.8661 306.95 57.9995C307.497 56.1328 308.25 54.5861 309.21 53.3595C310.17 52.1328 311.303 51.2261 312.61 50.6395C313.93 50.0395 315.363 49.7395 316.91 49.7395C318.457 49.7395 319.89 50.0395 321.21 50.6395C322.543 51.2261 323.69 52.1328 324.65 53.3595C325.623 54.5861 326.383 56.1328 326.93 57.9995C327.477 59.8661 327.75 62.0728 327.75 64.6195ZM321.35 64.6195C321.35 62.6061 321.223 60.9595 320.97 59.6795C320.717 58.3861 320.377 57.3728 319.95 56.6395C319.537 55.9061 319.063 55.4061 318.53 55.1395C317.997 54.8595 317.457 54.7195 316.91 54.7195C316.363 54.7195 315.823 54.8595 315.29 55.1395C314.77 55.4061 314.303 55.9061 313.89 56.6395C313.49 57.3728 313.163 58.3861 312.91 59.6795C312.67 60.9595 312.55 62.6061 312.55 64.6195C312.55 66.6461 312.67 68.2995 312.91 69.5795C313.163 70.8595 313.49 71.8728 313.89 72.6195C314.303 73.3528 314.77 73.8595 315.29 74.1395C315.823 74.4061 316.363 74.5395 316.91 74.5395C317.457 74.5395 317.997 74.4061 318.53 74.1395C319.063 73.8595 319.537 73.3528 319.95 72.6195C320.377 71.8728 320.717 70.8595 320.97 69.5795C321.223 68.2995 321.35 66.6461 321.35 64.6195ZM350.953 64.6195C350.953 67.1661 350.68 69.3728 350.133 71.2395C349.587 73.1061 348.827 74.6528 347.853 75.8795C346.893 77.1061 345.747 78.0195 344.413 78.6195C343.093 79.2195 341.66 79.5195 340.113 79.5195C338.567 79.5195 337.133 79.2195 335.813 78.6195C334.507 78.0195 333.373 77.1061 332.413 75.8795C331.453 74.6528 330.7 73.1061 330.153 71.2395C329.62 69.3728 329.353 67.1661 329.353 64.6195C329.353 62.0728 329.62 59.8661 330.153 57.9995C330.7 56.1328 331.453 54.5861 332.413 53.3595C333.373 52.1328 334.507 51.2261 335.813 50.6395C337.133 50.0395 338.567 49.7395 340.113 49.7395C341.66 49.7395 343.093 50.0395 344.413 50.6395C345.747 51.2261 346.893 52.1328 347.853 53.3595C348.827 54.5861 349.587 56.1328 350.133 57.9995C350.68 59.8661 350.953 62.0728 350.953 64.6195ZM344.553 64.6195C344.553 62.6061 344.427 60.9595 344.173 59.6795C343.92 58.3861 343.58 57.3728 343.153 56.6395C342.74 55.9061 342.267 55.4061 341.733 55.1395C341.2 54.8595 340.66 54.7195 340.113 54.7195C339.567 54.7195 339.027 54.8595 338.493 55.1395C337.973 55.4061 337.507 55.9061 337.093 56.6395C336.693 57.3728 336.367 58.3861 336.113 59.6795C335.873 60.9595 335.753 62.6061 335.753 64.6195C335.753 66.6461 335.873 68.2995 336.113 69.5795C336.367 70.8595 336.693 71.8728 337.093 72.6195C337.507 73.3528 337.973 73.8595 338.493 74.1395C339.027 74.4061 339.567 74.5395 340.113 74.5395C340.66 74.5395 341.2 74.4061 341.733 74.1395C342.267 73.8595 342.74 73.3528 343.153 72.6195C343.58 71.8728 343.92 70.8595 344.173 69.5795C344.427 68.2995 344.553 66.6461 344.553 64.6195ZM374.156 64.6195C374.156 67.1661 373.883 69.3728 373.336 71.2395C372.79 73.1061 372.03 74.6528 371.056 75.8795C370.096 77.1061 368.95 78.0195 367.616 78.6195C366.296 79.2195 364.863 79.5195 363.316 79.5195C361.77 79.5195 360.336 79.2195 359.016 78.6195C357.71 78.0195 356.576 77.1061 355.616 75.8795C354.656 74.6528 353.903 73.1061 353.356 71.2395C352.823 69.3728 352.556 67.1661 352.556 64.6195C352.556 62.0728 352.823 59.8661 353.356 57.9995C353.903 56.1328 354.656 54.5861 355.616 53.3595C356.576 52.1328 357.71 51.2261 359.016 50.6395C360.336 50.0395 361.77 49.7395 363.316 49.7395C364.863 49.7395 366.296 50.0395 367.616 50.6395C368.95 51.2261 370.096 52.1328 371.056 53.3595C372.03 54.5861 372.79 56.1328 373.336 57.9995C373.883 59.8661 374.156 62.0728 374.156 64.6195ZM367.756 64.6195C367.756 62.6061 367.63 60.9595 367.376 59.6795C367.123 58.3861 366.783 57.3728 366.356 56.6395C365.943 55.9061 365.47 55.4061 364.936 55.1395C364.403 54.8595 363.863 54.7195 363.316 54.7195C362.77 54.7195 362.23 54.8595 361.696 55.1395C361.176 55.4061 360.71 55.9061 360.296 56.6395C359.896 57.3728 359.57 58.3861 359.316 59.6795C359.076 60.9595 358.956 62.6061 358.956 64.6195C358.956 66.6461 359.076 68.2995 359.316 69.5795C359.57 70.8595 359.896 71.8728 360.296 72.6195C360.71 73.3528 361.176 73.8595 361.696 74.1395C362.23 74.4061 362.77 74.5395 363.316 74.5395C363.863 74.5395 364.403 74.4061 364.936 74.1395C365.47 73.8595 365.943 73.3528 366.356 72.6195C366.783 71.8728 367.123 70.8595 367.376 69.5795C367.63 68.2995 367.756 66.6461 367.756 64.6195Z" fill="white"/>
<path d="M264.96 105.153C265.048 105.153 265.124 105.187 265.188 105.255L265.824 105.945C265.472 106.381 265.038 106.715 264.522 106.947C264.01 107.179 263.394 107.295 262.674 107.295C262.03 107.295 261.45 107.185 260.934 106.965C260.422 106.745 259.984 106.439 259.62 106.047C259.256 105.655 258.976 105.187 258.78 104.643C258.588 104.099 258.492 103.505 258.492 102.861C258.492 102.209 258.6 101.613 258.816 101.073C259.032 100.529 259.336 100.061 259.728 99.6695C260.12 99.2775 260.588 98.9735 261.132 98.7575C261.68 98.5375 262.284 98.4275 262.944 98.4275C263.588 98.4275 264.15 98.5315 264.63 98.7395C265.114 98.9435 265.528 99.2155 265.872 99.5555L265.332 100.305C265.3 100.353 265.258 100.395 265.206 100.431C265.158 100.467 265.09 100.485 265.002 100.485C264.91 100.485 264.816 100.449 264.72 100.377C264.624 100.305 264.502 100.227 264.354 100.143C264.206 100.059 264.018 99.9815 263.79 99.9095C263.566 99.8375 263.28 99.8015 262.932 99.8015C262.524 99.8015 262.148 99.8735 261.804 100.017C261.464 100.157 261.17 100.359 260.922 100.623C260.678 100.887 260.486 101.209 260.346 101.589C260.21 101.965 260.142 102.389 260.142 102.861C260.142 103.349 260.21 103.783 260.346 104.163C260.486 104.543 260.674 104.863 260.91 105.123C261.146 105.383 261.424 105.583 261.744 105.723C262.064 105.859 262.408 105.927 262.776 105.927C262.996 105.927 263.194 105.915 263.37 105.891C263.55 105.867 263.714 105.829 263.862 105.777C264.014 105.725 264.156 105.659 264.288 105.579C264.424 105.495 264.558 105.393 264.69 105.273C264.73 105.237 264.772 105.209 264.816 105.189C264.86 105.165 264.908 105.153 264.96 105.153ZM275.368 102.861C275.368 103.497 275.262 104.087 275.05 104.631C274.838 105.171 274.54 105.639 274.156 106.035C273.772 106.431 273.31 106.741 272.77 106.965C272.23 107.185 271.632 107.295 270.976 107.295C270.32 107.295 269.72 107.185 269.176 106.965C268.636 106.741 268.172 106.431 267.784 106.035C267.4 105.639 267.102 105.171 266.89 104.631C266.678 104.087 266.572 103.497 266.572 102.861C266.572 102.225 266.678 101.637 266.89 101.097C267.102 100.553 267.4 100.083 267.784 99.6875C268.172 99.2915 268.636 98.9835 269.176 98.7635C269.72 98.5395 270.32 98.4275 270.976 98.4275C271.632 98.4275 272.23 98.5395 272.77 98.7635C273.31 98.9875 273.772 99.2975 274.156 99.6935C274.54 100.085 274.838 100.553 275.05 101.097C275.262 101.637 275.368 102.225 275.368 102.861ZM273.712 102.861C273.712 102.385 273.648 101.959 273.52 101.583C273.396 101.203 273.216 100.881 272.98 100.617C272.744 100.353 272.456 100.151 272.116 100.011C271.78 99.8715 271.4 99.8015 270.976 99.8015C270.552 99.8015 270.17 99.8715 269.83 100.011C269.49 100.151 269.2 100.353 268.96 100.617C268.724 100.881 268.542 101.203 268.414 101.583C268.286 101.959 268.222 102.385 268.222 102.861C268.222 103.337 268.286 103.765 268.414 104.145C268.542 104.521 268.724 104.841 268.96 105.105C269.2 105.365 269.49 105.565 269.83 105.705C270.17 105.845 270.552 105.915 270.976 105.915C271.4 105.915 271.78 105.845 272.116 105.705C272.456 105.565 272.744 105.365 272.98 105.105C273.216 104.841 273.396 104.521 273.52 104.145C273.648 103.765 273.712 103.337 273.712 102.861ZM283.965 107.199H282.717C282.577 107.199 282.461 107.165 282.369 107.097C282.281 107.025 282.217 106.937 282.177 106.833L281.529 105.063H277.935L277.287 106.833C277.255 106.925 277.191 107.009 277.095 107.085C277.003 107.161 276.889 107.199 276.753 107.199H275.499L278.907 98.5235H280.557L283.965 107.199ZM278.349 103.923H281.115L280.059 101.037C280.011 100.909 279.957 100.759 279.897 100.587C279.841 100.411 279.785 100.221 279.729 100.017C279.673 100.221 279.617 100.411 279.561 100.587C279.509 100.763 279.457 100.917 279.405 101.049L278.349 103.923ZM290.518 105.153C290.606 105.153 290.682 105.187 290.746 105.255L291.382 105.945C291.03 106.381 290.596 106.715 290.08 106.947C289.568 107.179 288.952 107.295 288.232 107.295C287.588 107.295 287.008 107.185 286.492 106.965C285.98 106.745 285.542 106.439 285.178 106.047C284.814 105.655 284.534 105.187 284.338 104.643C284.146 104.099 284.05 103.505 284.05 102.861C284.05 102.209 284.158 101.613 284.374 101.073C284.59 100.529 284.894 100.061 285.286 99.6695C285.678 99.2775 286.146 98.9735 286.69 98.7575C287.238 98.5375 287.842 98.4275 288.502 98.4275C289.146 98.4275 289.708 98.5315 290.188 98.7395C290.672 98.9435 291.086 99.2155 291.43 99.5555L290.89 100.305C290.858 100.353 290.816 100.395 290.764 100.431C290.716 100.467 290.648 100.485 290.56 100.485C290.468 100.485 290.374 100.449 290.278 100.377C290.182 100.305 290.06 100.227 289.912 100.143C289.764 100.059 289.576 99.9815 289.348 99.9095C289.124 99.8375 288.838 99.8015 288.49 99.8015C288.082 99.8015 287.706 99.8735 287.362 100.017C287.022 100.157 286.728 100.359 286.48 100.623C286.236 100.887 286.044 101.209 285.904 101.589C285.768 101.965 285.7 102.389 285.7 102.861C285.7 103.349 285.768 103.783 285.904 104.163C286.044 104.543 286.232 104.863 286.468 105.123C286.704 105.383 286.982 105.583 287.302 105.723C287.622 105.859 287.966 105.927 288.334 105.927C288.554 105.927 288.752 105.915 288.928 105.891C289.108 105.867 289.272 105.829 289.42 105.777C289.572 105.725 289.714 105.659 289.846 105.579C289.982 105.495 290.116 105.393 290.248 105.273C290.288 105.237 290.33 105.209 290.374 105.189C290.418 105.165 290.466 105.153 290.518 105.153ZM299.925 107.199H298.299V103.407H294.231V107.199H292.605V98.5235H294.231V102.255H298.299V98.5235H299.925V107.199ZM303.493 107.199H301.873V98.5235H303.493V107.199ZM306.295 98.5235C306.367 98.5235 306.427 98.5275 306.475 98.5355C306.523 98.5395 306.565 98.5515 306.601 98.5715C306.641 98.5875 306.679 98.6135 306.715 98.6495C306.751 98.6815 306.791 98.7255 306.835 98.7815L311.389 104.583C311.373 104.443 311.361 104.307 311.353 104.175C311.349 104.039 311.347 103.913 311.347 103.797V98.5235H312.769V107.199H311.935C311.807 107.199 311.701 107.179 311.617 107.139C311.533 107.099 311.451 107.027 311.371 106.923L306.835 101.145C306.847 101.273 306.855 101.401 306.859 101.529C306.867 101.653 306.871 101.767 306.871 101.871V107.199H305.449V98.5235H306.295ZM318.503 106.011C318.867 106.011 319.183 105.979 319.451 105.915C319.723 105.847 319.981 105.755 320.225 105.639V104.061H319.139C319.035 104.061 318.953 104.033 318.893 103.977C318.833 103.917 318.803 103.845 318.803 103.761V102.849H321.689V106.359C321.469 106.519 321.239 106.659 320.999 106.779C320.763 106.895 320.509 106.991 320.237 107.067C319.969 107.143 319.681 107.199 319.373 107.235C319.065 107.275 318.733 107.295 318.377 107.295C317.745 107.295 317.163 107.185 316.631 106.965C316.099 106.745 315.639 106.439 315.251 106.047C314.863 105.655 314.559 105.187 314.339 104.643C314.123 104.099 314.015 103.505 314.015 102.861C314.015 102.209 314.121 101.611 314.333 101.067C314.545 100.523 314.845 100.055 315.233 99.6635C315.625 99.2715 316.099 98.9675 316.655 98.7515C317.211 98.5355 317.835 98.4275 318.527 98.4275C319.235 98.4275 319.847 98.5335 320.363 98.7455C320.883 98.9535 321.323 99.2255 321.683 99.5615L321.215 100.293C321.123 100.441 321.001 100.515 320.849 100.515C320.753 100.515 320.655 100.483 320.555 100.419C320.427 100.343 320.295 100.267 320.159 100.191C320.027 100.115 319.879 100.049 319.715 99.9935C319.555 99.9375 319.373 99.8915 319.169 99.8555C318.969 99.8195 318.737 99.8015 318.473 99.8015C318.045 99.8015 317.657 99.8735 317.309 100.017C316.965 100.161 316.671 100.367 316.427 100.635C316.183 100.903 315.995 101.225 315.863 101.601C315.731 101.977 315.665 102.397 315.665 102.861C315.665 103.361 315.735 103.807 315.875 104.199C316.015 104.587 316.211 104.915 316.463 105.183C316.715 105.451 317.015 105.657 317.363 105.801C317.711 105.941 318.091 106.011 318.503 106.011ZM332.831 107.199H331.205V103.407H327.137V107.199H325.511V98.5235H327.137V102.255H331.205V98.5235H332.831V107.199ZM342.904 102.861C342.904 103.497 342.798 104.087 342.586 104.631C342.374 105.171 342.076 105.639 341.692 106.035C341.308 106.431 340.846 106.741 340.306 106.965C339.766 107.185 339.168 107.295 338.512 107.295C337.856 107.295 337.256 107.185 336.712 106.965C336.172 106.741 335.708 106.431 335.32 106.035C334.936 105.639 334.638 105.171 334.426 104.631C334.214 104.087 334.108 103.497 334.108 102.861C334.108 102.225 334.214 101.637 334.426 101.097C334.638 100.553 334.936 100.083 335.32 99.6875C335.708 99.2915 336.172 98.9835 336.712 98.7635C337.256 98.5395 337.856 98.4275 338.512 98.4275C339.168 98.4275 339.766 98.5395 340.306 98.7635C340.846 98.9875 341.308 99.2975 341.692 99.6935C342.076 100.085 342.374 100.553 342.586 101.097C342.798 101.637 342.904 102.225 342.904 102.861ZM341.248 102.861C341.248 102.385 341.184 101.959 341.056 101.583C340.932 101.203 340.752 100.881 340.516 100.617C340.28 100.353 339.992 100.151 339.652 100.011C339.316 99.8715 338.936 99.8015 338.512 99.8015C338.088 99.8015 337.706 99.8715 337.366 100.011C337.026 100.151 336.736 100.353 336.496 100.617C336.26 100.881 336.078 101.203 335.95 101.583C335.822 101.959 335.758 102.385 335.758 102.861C335.758 103.337 335.822 103.765 335.95 104.145C336.078 104.521 336.26 104.841 336.496 105.105C336.736 105.365 337.026 105.565 337.366 105.705C337.706 105.845 338.088 105.915 338.512 105.915C338.936 105.915 339.316 105.845 339.652 105.705C339.992 105.565 340.28 105.365 340.516 105.105C340.752 104.841 340.932 104.521 341.056 104.145C341.184 103.765 341.248 103.337 341.248 102.861ZM347.671 105.897C347.983 105.897 348.261 105.845 348.505 105.741C348.753 105.637 348.961 105.491 349.129 105.303C349.301 105.115 349.431 104.887 349.519 104.619C349.611 104.351 349.657 104.051 349.657 103.719V98.5235H351.271V103.719C351.271 104.235 351.187 104.713 351.019 105.153C350.855 105.589 350.617 105.967 350.305 106.287C349.993 106.603 349.615 106.851 349.171 107.031C348.727 107.207 348.227 107.295 347.671 107.295C347.115 107.295 346.615 107.207 346.171 107.031C345.727 106.851 345.349 106.603 345.037 106.287C344.729 105.967 344.491 105.589 344.323 105.153C344.159 104.713 344.077 104.235 344.077 103.719V98.5235H345.691V103.713C345.691 104.045 345.735 104.345 345.823 104.613C345.915 104.881 346.045 105.111 346.213 105.303C346.381 105.491 346.587 105.637 346.831 105.741C347.079 105.845 347.359 105.897 347.671 105.897ZM354.578 103.809V107.199H352.964V98.5235H355.61C356.202 98.5235 356.708 98.5855 357.128 98.7095C357.552 98.8295 357.898 98.9995 358.166 99.2195C358.438 99.4395 358.636 99.7035 358.76 100.011C358.888 100.315 358.952 100.651 358.952 101.019C358.952 101.311 358.908 101.587 358.82 101.847C358.736 102.107 358.612 102.343 358.448 102.555C358.288 102.767 358.088 102.953 357.848 103.113C357.612 103.273 357.342 103.401 357.038 103.497C357.242 103.613 357.418 103.779 357.566 103.995L359.738 107.199H358.286C358.146 107.199 358.026 107.171 357.926 107.115C357.83 107.059 357.748 106.979 357.68 106.875L355.856 104.097C355.788 103.993 355.712 103.919 355.628 103.875C355.548 103.831 355.428 103.809 355.268 103.809H354.578ZM354.578 102.651H355.586C355.89 102.651 356.154 102.613 356.378 102.537C356.606 102.461 356.792 102.357 356.936 102.225C357.084 102.089 357.194 101.929 357.266 101.745C357.338 101.561 357.374 101.359 357.374 101.139C357.374 100.699 357.228 100.361 356.936 100.125C356.648 99.8895 356.206 99.7715 355.61 99.7715H354.578V102.651ZM365.423 100.101C365.379 100.189 365.327 100.251 365.267 100.287C365.211 100.323 365.143 100.341 365.063 100.341C364.983 100.341 364.893 100.311 364.793 100.251C364.693 100.187 364.575 100.117 364.439 100.041C364.303 99.9655 364.143 99.8975 363.959 99.8375C363.779 99.7735 363.565 99.7415 363.317 99.7415C363.093 99.7415 362.897 99.7695 362.729 99.8255C362.565 99.8775 362.425 99.9515 362.309 100.047C362.197 100.143 362.113 100.259 362.057 100.395C362.001 100.527 361.973 100.673 361.973 100.833C361.973 101.037 362.029 101.207 362.141 101.343C362.257 101.479 362.409 101.595 362.597 101.691C362.785 101.787 362.999 101.873 363.239 101.949C363.479 102.025 363.723 102.107 363.971 102.195C364.223 102.279 364.469 102.379 364.709 102.495C364.949 102.607 365.163 102.751 365.351 102.927C365.539 103.099 365.689 103.311 365.801 103.563C365.917 103.815 365.975 104.121 365.975 104.481C365.975 104.873 365.907 105.241 365.771 105.585C365.639 105.925 365.443 106.223 365.183 106.479C364.927 106.731 364.613 106.931 364.241 107.079C363.869 107.223 363.443 107.295 362.963 107.295C362.687 107.295 362.415 107.267 362.147 107.211C361.879 107.159 361.621 107.083 361.373 106.983C361.129 106.883 360.899 106.763 360.683 106.623C360.471 106.483 360.281 106.327 360.113 106.155L360.581 105.381C360.625 105.325 360.677 105.279 360.737 105.243C360.801 105.203 360.871 105.183 360.947 105.183C361.047 105.183 361.155 105.225 361.271 105.309C361.387 105.389 361.523 105.479 361.679 105.579C361.839 105.679 362.025 105.771 362.237 105.855C362.453 105.935 362.711 105.975 363.011 105.975C363.471 105.975 363.827 105.867 364.079 105.651C364.331 105.431 364.457 105.117 364.457 104.709C364.457 104.481 364.399 104.295 364.283 104.151C364.171 104.007 364.021 103.887 363.833 103.791C363.645 103.691 363.431 103.607 363.191 103.539C362.951 103.471 362.707 103.397 362.459 103.317C362.211 103.237 361.967 103.141 361.727 103.029C361.487 102.917 361.273 102.771 361.085 102.591C360.897 102.411 360.745 102.187 360.629 101.919C360.517 101.647 360.461 101.313 360.461 100.917C360.461 100.601 360.523 100.293 360.647 99.9935C360.775 99.6935 360.959 99.4275 361.199 99.1955C361.443 98.9635 361.741 98.7775 362.093 98.6375C362.445 98.4975 362.847 98.4275 363.299 98.4275C363.811 98.4275 364.283 98.5075 364.715 98.6675C365.147 98.8275 365.515 99.0515 365.819 99.3395L365.423 100.101Z" fill="white"/>
<line opacity="0.3" x1="398.499" y1="42.6995" x2="398.499" y2="109.699" stroke="#DCDCDC"/>
<path d="M449.407 49.7395C450.847 49.7395 452.14 49.9528 453.287 50.3795C454.447 50.7928 455.433 51.3728 456.247 52.1195C457.06 52.8661 457.68 53.7595 458.107 54.7995C458.547 55.8261 458.767 56.9595 458.767 58.1995C458.767 59.2661 458.613 60.2528 458.307 61.1595C458.013 62.0661 457.607 62.9328 457.087 63.7595C456.567 64.5728 455.96 65.3661 455.267 66.1395C454.587 66.8995 453.86 67.6728 453.087 68.4595L447.387 74.2995C448.12 74.0861 448.84 73.9195 449.547 73.7995C450.267 73.6661 450.94 73.5995 451.567 73.5995H457.007C457.673 73.5995 458.2 73.7861 458.587 74.1595C458.973 74.5195 459.167 74.9995 459.167 75.5995V79.1995H438.687V77.1995C438.687 76.8128 438.767 76.3995 438.927 75.9595C439.087 75.5195 439.367 75.1195 439.767 74.7595L448.167 66.2995C448.887 65.5795 449.513 64.8928 450.047 64.2395C450.58 63.5861 451.02 62.9461 451.367 62.3195C451.713 61.6795 451.973 61.0461 452.147 60.4195C452.32 59.7795 452.407 59.1061 452.407 58.3995C452.407 57.2395 452.127 56.3528 451.567 55.7395C451.02 55.1128 450.18 54.7995 449.047 54.7995C448.58 54.7995 448.153 54.8661 447.767 54.9995C447.38 55.1328 447.033 55.3128 446.727 55.5395C446.42 55.7661 446.153 56.0328 445.927 56.3395C445.713 56.6461 445.54 56.9795 445.407 57.3395C445.193 57.9395 444.92 58.3728 444.587 58.6395C444.267 58.9061 443.827 59.0395 443.267 59.0395C443.133 59.0395 442.987 59.0328 442.827 59.0195C442.68 59.0061 442.527 58.9861 442.367 58.9595L439.087 58.3795C439.3 56.9261 439.707 55.6595 440.307 54.5795C440.92 53.4995 441.673 52.5995 442.567 51.8795C443.473 51.1595 444.507 50.6261 445.667 50.2795C446.827 49.9195 448.073 49.7395 449.407 49.7395ZM482.69 50.0595V52.6595C482.69 53.3928 482.61 53.9861 482.45 54.4395C482.29 54.8928 482.137 55.2795 481.99 55.5995L471.81 77.1595C471.543 77.7328 471.15 78.2195 470.63 78.6195C470.11 79.0061 469.423 79.1995 468.57 79.1995H464.05L474.45 58.3395C474.73 57.7661 475.03 57.2528 475.35 56.7995C475.683 56.3461 476.043 55.9128 476.43 55.4995H463.61C463.423 55.4995 463.243 55.4661 463.07 55.3995C462.91 55.3195 462.763 55.2195 462.63 55.0995C462.51 54.9661 462.41 54.8195 462.33 54.6595C462.25 54.4861 462.21 54.3128 462.21 54.1395V50.0595H482.69ZM506.173 64.6195C506.173 67.1661 505.9 69.3728 505.353 71.2395C504.806 73.1061 504.046 74.6528 503.073 75.8795C502.113 77.1061 500.966 78.0195 499.633 78.6195C498.313 79.2195 496.88 79.5195 495.333 79.5195C493.786 79.5195 492.353 79.2195 491.033 78.6195C489.726 78.0195 488.593 77.1061 487.633 75.8795C486.673 74.6528 485.92 73.1061 485.373 71.2395C484.84 69.3728 484.573 67.1661 484.573 64.6195C484.573 62.0728 484.84 59.8661 485.373 57.9995C485.92 56.1328 486.673 54.5861 487.633 53.3595C488.593 52.1328 489.726 51.2261 491.033 50.6395C492.353 50.0395 493.786 49.7395 495.333 49.7395C496.88 49.7395 498.313 50.0395 499.633 50.6395C500.966 51.2261 502.113 52.1328 503.073 53.3595C504.046 54.5861 504.806 56.1328 505.353 57.9995C505.9 59.8661 506.173 62.0728 506.173 64.6195ZM499.773 64.6195C499.773 62.6061 499.646 60.9595 499.393 59.6795C499.14 58.3861 498.8 57.3728 498.373 56.6395C497.96 55.9061 497.486 55.4061 496.953 55.1395C496.42 54.8595 495.88 54.7195 495.333 54.7195C494.786 54.7195 494.246 54.8595 493.713 55.1395C493.193 55.4061 492.726 55.9061 492.313 56.6395C491.913 57.3728 491.586 58.3861 491.333 59.6795C491.093 60.9595 490.973 62.6061 490.973 64.6195C490.973 66.6461 491.093 68.2995 491.333 69.5795C491.586 70.8595 491.913 71.8728 492.313 72.6195C492.726 73.3528 493.193 73.8595 493.713 74.1395C494.246 74.4061 494.786 74.5395 495.333 74.5395C495.88 74.5395 496.42 74.4061 496.953 74.1395C497.486 73.8595 497.96 73.3528 498.373 72.6195C498.8 71.8728 499.14 70.8595 499.393 69.5795C499.646 68.2995 499.773 66.6461 499.773 64.6195ZM521.056 55.6195V63.5395H528.456V67.9795H521.056V75.9395H516.016V67.9795H508.656V63.5395H516.016V55.6195H521.056Z" fill="white"/>
<path d="M466.847 105.153C466.935 105.153 467.011 105.187 467.075 105.255L467.711 105.945C467.359 106.381 466.925 106.715 466.409 106.947C465.897 107.179 465.281 107.295 464.561 107.295C463.917 107.295 463.337 107.185 462.821 106.965C462.309 106.745 461.871 106.439 461.507 106.047C461.143 105.655 460.863 105.187 460.667 104.643C460.475 104.099 460.379 103.505 460.379 102.861C460.379 102.209 460.487 101.613 460.703 101.073C460.919 100.529 461.223 100.061 461.615 99.6695C462.007 99.2775 462.475 98.9735 463.019 98.7575C463.567 98.5375 464.171 98.4275 464.831 98.4275C465.475 98.4275 466.037 98.5315 466.517 98.7395C467.001 98.9435 467.415 99.2155 467.759 99.5555L467.219 100.305C467.187 100.353 467.145 100.395 467.093 100.431C467.045 100.467 466.977 100.485 466.889 100.485C466.797 100.485 466.703 100.449 466.607 100.377C466.511 100.305 466.389 100.227 466.241 100.143C466.093 100.059 465.905 99.9815 465.677 99.9095C465.453 99.8375 465.167 99.8015 464.819 99.8015C464.411 99.8015 464.035 99.8735 463.691 100.017C463.351 100.157 463.057 100.359 462.809 100.623C462.565 100.887 462.373 101.209 462.233 101.589C462.097 101.965 462.029 102.389 462.029 102.861C462.029 103.349 462.097 103.783 462.233 104.163C462.373 104.543 462.561 104.863 462.797 105.123C463.033 105.383 463.311 105.583 463.631 105.723C463.951 105.859 464.295 105.927 464.663 105.927C464.883 105.927 465.081 105.915 465.257 105.891C465.437 105.867 465.601 105.829 465.749 105.777C465.901 105.725 466.043 105.659 466.175 105.579C466.311 105.495 466.445 105.393 466.577 105.273C466.617 105.237 466.659 105.209 466.703 105.189C466.747 105.165 466.795 105.153 466.847 105.153ZM470.548 105.867H474.022V107.199H468.934V98.5235H470.548V105.867ZM476.951 107.199H475.331V98.5235H476.951V107.199ZM484.379 98.5235V99.8075H480.533V102.213H483.563V103.455H480.533V105.909H484.379V107.199H478.907V98.5235H484.379ZM486.62 98.5235C486.692 98.5235 486.752 98.5275 486.8 98.5355C486.848 98.5395 486.89 98.5515 486.926 98.5715C486.966 98.5875 487.004 98.6135 487.04 98.6495C487.076 98.6815 487.116 98.7255 487.16 98.7815L491.714 104.583C491.698 104.443 491.686 104.307 491.678 104.175C491.674 104.039 491.672 103.913 491.672 103.797V98.5235H493.094V107.199H492.26C492.132 107.199 492.026 107.179 491.942 107.139C491.858 107.099 491.776 107.027 491.696 106.923L487.16 101.145C487.172 101.273 487.18 101.401 487.184 101.529C487.192 101.653 487.196 101.767 487.196 101.871V107.199H485.774V98.5235H486.62ZM500.958 98.5235V99.8495H498.348V107.199H496.734V99.8495H494.112V98.5235H500.958ZM506.631 100.101C506.587 100.189 506.535 100.251 506.475 100.287C506.419 100.323 506.351 100.341 506.271 100.341C506.191 100.341 506.101 100.311 506.001 100.251C505.901 100.187 505.783 100.117 505.647 100.041C505.511 99.9655 505.351 99.8975 505.167 99.8375C504.987 99.7735 504.773 99.7415 504.525 99.7415C504.301 99.7415 504.105 99.7695 503.937 99.8255C503.773 99.8775 503.633 99.9515 503.517 100.047C503.405 100.143 503.321 100.259 503.265 100.395C503.209 100.527 503.181 100.673 503.181 100.833C503.181 101.037 503.237 101.207 503.349 101.343C503.465 101.479 503.617 101.595 503.805 101.691C503.993 101.787 504.207 101.873 504.447 101.949C504.687 102.025 504.931 102.107 505.179 102.195C505.431 102.279 505.677 102.379 505.917 102.495C506.157 102.607 506.371 102.751 506.559 102.927C506.747 103.099 506.897 103.311 507.009 103.563C507.125 103.815 507.183 104.121 507.183 104.481C507.183 104.873 507.115 105.241 506.979 105.585C506.847 105.925 506.651 106.223 506.391 106.479C506.135 106.731 505.821 106.931 505.449 107.079C505.077 107.223 504.651 107.295 504.171 107.295C503.895 107.295 503.623 107.267 503.355 107.211C503.087 107.159 502.829 107.083 502.581 106.983C502.337 106.883 502.107 106.763 501.891 106.623C501.679 106.483 501.489 106.327 501.321 106.155L501.789 105.381C501.833 105.325 501.885 105.279 501.945 105.243C502.009 105.203 502.079 105.183 502.155 105.183C502.255 105.183 502.363 105.225 502.479 105.309C502.595 105.389 502.731 105.479 502.887 105.579C503.047 105.679 503.233 105.771 503.445 105.855C503.661 105.935 503.919 105.975 504.219 105.975C504.679 105.975 505.035 105.867 505.287 105.651C505.539 105.431 505.665 105.117 505.665 104.709C505.665 104.481 505.607 104.295 505.491 104.151C505.379 104.007 505.229 103.887 505.041 103.791C504.853 103.691 504.639 103.607 504.399 103.539C504.159 103.471 503.915 103.397 503.667 103.317C503.419 103.237 503.175 103.141 502.935 103.029C502.695 102.917 502.481 102.771 502.293 102.591C502.105 102.411 501.953 102.187 501.837 101.919C501.725 101.647 501.669 101.313 501.669 100.917C501.669 100.601 501.731 100.293 501.855 99.9935C501.983 99.6935 502.167 99.4275 502.407 99.1955C502.651 98.9635 502.949 98.7775 503.301 98.6375C503.653 98.4975 504.055 98.4275 504.507 98.4275C505.019 98.4275 505.491 98.5075 505.923 98.6675C506.355 98.8275 506.723 99.0515 507.027 99.3395L506.631 100.101Z" fill="white"/>
<line opacity="0.3" x1="570.047" y1="42.6995" x2="570.047" y2="109.699" stroke="#DCDCDC"/>
<path d="M636.009 64.6195C636.009 66.7261 635.643 68.6861 634.909 70.4995C634.189 72.3128 633.169 73.8928 631.849 75.2395C630.529 76.5728 628.936 77.6195 627.069 78.3795C625.216 79.1395 623.156 79.5195 620.889 79.5195C618.623 79.5195 616.556 79.1395 614.689 78.3795C612.823 77.6195 611.223 76.5728 609.889 75.2395C608.569 73.8928 607.543 72.3128 606.809 70.4995C606.089 68.6861 605.729 66.7261 605.729 64.6195C605.729 62.5128 606.089 60.5528 606.809 58.7395C607.543 56.9261 608.569 55.3528 609.889 54.0195C611.223 52.6861 612.823 51.6395 614.689 50.8795C616.556 50.1195 618.623 49.7395 620.889 49.7395C623.156 49.7395 625.216 50.1261 627.069 50.8995C628.936 51.6595 630.529 52.7061 631.849 54.0395C633.169 55.3728 634.189 56.9461 634.909 58.7595C635.643 60.5728 636.009 62.5261 636.009 64.6195ZM629.089 64.6195C629.089 63.1795 628.903 61.8861 628.529 60.7395C628.156 59.5795 627.616 58.5995 626.909 57.7995C626.216 56.9995 625.363 56.3861 624.349 55.9595C623.336 55.5328 622.183 55.3195 620.889 55.3195C619.583 55.3195 618.416 55.5328 617.389 55.9595C616.376 56.3861 615.516 56.9995 614.809 57.7995C614.116 58.5995 613.583 59.5795 613.209 60.7395C612.836 61.8861 612.649 63.1795 612.649 64.6195C612.649 66.0728 612.836 67.3795 613.209 68.5395C613.583 69.6861 614.116 70.6595 614.809 71.4595C615.516 72.2595 616.376 72.8728 617.389 73.2995C618.416 73.7128 619.583 73.9195 620.889 73.9195C622.183 73.9195 623.336 73.7128 624.349 73.2995C625.363 72.8728 626.216 72.2595 626.909 71.4595C627.616 70.6595 628.156 69.6861 628.529 68.5395C628.903 67.3795 629.089 66.0728 629.089 64.6195ZM650.721 79.1995H645.081L637.041 58.4595H642.201C642.641 58.4595 643.008 58.5661 643.301 58.7795C643.608 58.9795 643.815 59.2328 643.921 59.5395L646.801 68.8395C647.028 69.5995 647.241 70.3395 647.441 71.0595C647.655 71.7795 647.835 72.4995 647.981 73.2195C648.128 72.4995 648.308 71.7795 648.521 71.0595C648.735 70.3395 648.961 69.5995 649.201 68.8395L652.201 59.5395C652.308 59.2328 652.508 58.9795 652.801 58.7795C653.095 58.5661 653.441 58.4595 653.841 58.4595H658.761L650.721 79.1995ZM669.45 58.1395C670.823 58.1395 672.076 58.3528 673.21 58.7795C674.356 59.2061 675.336 59.8261 676.15 60.6395C676.976 61.4528 677.616 62.4528 678.07 63.6395C678.536 64.8128 678.77 66.1461 678.77 67.6395C678.77 68.1061 678.75 68.4861 678.71 68.7795C678.67 69.0728 678.596 69.3061 678.49 69.4795C678.383 69.6528 678.236 69.7728 678.05 69.8395C677.876 69.9061 677.65 69.9395 677.37 69.9395H665.41C665.61 71.6728 666.136 72.9328 666.99 73.7195C667.843 74.4928 668.943 74.8795 670.29 74.8795C671.01 74.8795 671.63 74.7928 672.15 74.6195C672.67 74.4461 673.13 74.2528 673.53 74.0395C673.943 73.8261 674.316 73.6328 674.65 73.4595C674.996 73.2861 675.356 73.1995 675.73 73.1995C676.223 73.1995 676.596 73.3795 676.85 73.7395L678.65 75.9595C678.01 76.6928 677.316 77.2928 676.57 77.7595C675.836 78.2128 675.076 78.5728 674.29 78.8395C673.516 79.0928 672.736 79.2661 671.95 79.3595C671.176 79.4661 670.436 79.5195 669.73 79.5195C668.276 79.5195 666.91 79.2861 665.63 78.8195C664.363 78.3395 663.25 77.6328 662.29 76.6995C661.343 75.7661 660.59 74.6061 660.03 73.2195C659.483 71.8328 659.21 70.2195 659.21 68.3795C659.21 66.9928 659.443 65.6795 659.91 64.4395C660.39 63.1995 661.07 62.1128 661.95 61.1795C662.843 60.2461 663.916 59.5061 665.17 58.9595C666.436 58.4128 667.863 58.1395 669.45 58.1395ZM669.57 62.4195C668.383 62.4195 667.456 62.7595 666.79 63.4395C666.123 64.1061 665.683 65.0728 665.47 66.3395H673.21C673.21 65.8461 673.143 65.3661 673.01 64.8995C672.89 64.4328 672.683 64.0195 672.39 63.6595C672.11 63.2861 671.736 62.9861 671.27 62.7595C670.803 62.5328 670.236 62.4195 669.57 62.4195ZM682.327 79.1995V58.4595H686.007C686.314 58.4595 686.567 58.4861 686.767 58.5395C686.981 58.5928 687.154 58.6795 687.287 58.7995C687.434 58.9061 687.541 59.0528 687.607 59.2395C687.687 59.4261 687.754 59.6528 687.807 59.9195L688.147 61.8595C688.907 60.6861 689.761 59.7595 690.707 59.0795C691.654 58.3995 692.687 58.0595 693.807 58.0595C694.754 58.0595 695.514 58.2861 696.087 58.7395L695.287 63.2995C695.234 63.5795 695.127 63.7795 694.967 63.8995C694.807 64.0061 694.594 64.0595 694.327 64.0595C694.101 64.0595 693.834 64.0328 693.527 63.9795C693.221 63.9128 692.834 63.8795 692.367 63.8795C690.741 63.8795 689.461 64.7461 688.527 66.4795V79.1995H682.327ZM716.225 49.7395C717.665 49.7395 718.958 49.9528 720.105 50.3795C721.265 50.7928 722.252 51.3728 723.065 52.1195C723.878 52.8661 724.498 53.7595 724.925 54.7995C725.365 55.8261 725.585 56.9595 725.585 58.1995C725.585 59.2661 725.432 60.2528 725.125 61.1595C724.832 62.0661 724.425 62.9328 723.905 63.7595C723.385 64.5728 722.778 65.3661 722.085 66.1395C721.405 66.8995 720.678 67.6728 719.905 68.4595L714.205 74.2995C714.938 74.0861 715.658 73.9195 716.365 73.7995C717.085 73.6661 717.758 73.5995 718.385 73.5995H723.825C724.492 73.5995 725.018 73.7861 725.405 74.1595C725.792 74.5195 725.985 74.9995 725.985 75.5995V79.1995H705.505V77.1995C705.505 76.8128 705.585 76.3995 705.745 75.9595C705.905 75.5195 706.185 75.1195 706.585 74.7595L714.985 66.2995C715.705 65.5795 716.332 64.8928 716.865 64.2395C717.398 63.5861 717.838 62.9461 718.185 62.3195C718.532 61.6795 718.792 61.0461 718.965 60.4195C719.138 59.7795 719.225 59.1061 719.225 58.3995C719.225 57.2395 718.945 56.3528 718.385 55.7395C717.838 55.1128 716.998 54.7995 715.865 54.7995C715.398 54.7995 714.972 54.8661 714.585 54.9995C714.198 55.1328 713.852 55.3128 713.545 55.5395C713.238 55.7661 712.972 56.0328 712.745 56.3395C712.532 56.6461 712.358 56.9795 712.225 57.3395C712.012 57.9395 711.738 58.3728 711.405 58.6395C711.085 58.9061 710.645 59.0395 710.085 59.0395C709.952 59.0395 709.805 59.0328 709.645 59.0195C709.498 59.0061 709.345 58.9861 709.185 58.9595L705.905 58.3795C706.118 56.9261 706.525 55.6595 707.125 54.5795C707.738 53.4995 708.492 52.5995 709.385 51.8795C710.292 51.1595 711.325 50.6261 712.485 50.2795C713.645 49.9195 714.892 49.7395 716.225 49.7395ZM747.348 52.6195C747.348 53.0461 747.282 53.4328 747.148 53.7795C747.015 54.1261 746.802 54.4328 746.508 54.6995C746.228 54.9528 745.855 55.1528 745.388 55.2995C744.922 55.4328 744.362 55.4995 743.708 55.4995H736.748L735.928 60.3195C736.475 60.2261 737.002 60.1595 737.508 60.1195C738.015 60.0661 738.508 60.0395 738.988 60.0395C740.522 60.0395 741.875 60.2728 743.048 60.7395C744.222 61.2061 745.208 61.8461 746.008 62.6595C746.808 63.4595 747.408 64.4061 747.808 65.4995C748.222 66.5795 748.428 67.7395 748.428 68.9795C748.428 70.5395 748.148 71.9661 747.588 73.2595C747.042 74.5395 746.275 75.6461 745.288 76.5795C744.302 77.5128 743.122 78.2395 741.748 78.7595C740.388 79.2661 738.895 79.5195 737.268 79.5195C736.322 79.5195 735.415 79.4195 734.548 79.2195C733.695 79.0195 732.888 78.7528 732.128 78.4195C731.382 78.0728 730.688 77.6795 730.048 77.2395C729.408 76.7861 728.828 76.3061 728.308 75.7995L730.228 73.2395C730.428 72.9728 730.662 72.7728 730.928 72.6395C731.195 72.4928 731.482 72.4195 731.788 72.4195C732.188 72.4195 732.562 72.5328 732.908 72.7595C733.268 72.9728 733.655 73.2128 734.068 73.4795C734.495 73.7328 734.988 73.9661 735.548 74.1795C736.108 74.3928 736.802 74.4995 737.628 74.4995C738.455 74.4995 739.162 74.3661 739.748 74.0995C740.335 73.8195 740.808 73.4461 741.168 72.9795C741.542 72.4995 741.808 71.9461 741.968 71.3195C742.142 70.6795 742.228 69.9995 742.228 69.2795C742.228 67.8661 741.828 66.7928 741.028 66.0595C740.228 65.3128 739.095 64.9395 737.628 64.9395C736.322 64.9395 735.042 65.1861 733.788 65.6795L729.948 64.6395L732.428 50.0595H747.348V52.6195ZM772.991 64.6195C772.991 67.1661 772.718 69.3728 772.171 71.2395C771.625 73.1061 770.865 74.6528 769.891 75.8795C768.931 77.1061 767.785 78.0195 766.451 78.6195C765.131 79.2195 763.698 79.5195 762.151 79.5195C760.605 79.5195 759.171 79.2195 757.851 78.6195C756.545 78.0195 755.411 77.1061 754.451 75.8795C753.491 74.6528 752.738 73.1061 752.191 71.2395C751.658 69.3728 751.391 67.1661 751.391 64.6195C751.391 62.0728 751.658 59.8661 752.191 57.9995C752.738 56.1328 753.491 54.5861 754.451 53.3595C755.411 52.1328 756.545 51.2261 757.851 50.6395C759.171 50.0395 760.605 49.7395 762.151 49.7395C763.698 49.7395 765.131 50.0395 766.451 50.6395C767.785 51.2261 768.931 52.1328 769.891 53.3595C770.865 54.5861 771.625 56.1328 772.171 57.9995C772.718 59.8661 772.991 62.0728 772.991 64.6195ZM766.591 64.6195C766.591 62.6061 766.465 60.9595 766.211 59.6795C765.958 58.3861 765.618 57.3728 765.191 56.6395C764.778 55.9061 764.305 55.4061 763.771 55.1395C763.238 54.8595 762.698 54.7195 762.151 54.7195C761.605 54.7195 761.065 54.8595 760.531 55.1395C760.011 55.4061 759.545 55.9061 759.131 56.6395C758.731 57.3728 758.405 58.3861 758.151 59.6795C757.911 60.9595 757.791 62.6061 757.791 64.6195C757.791 66.6461 757.911 68.2995 758.151 69.5795C758.405 70.8595 758.731 71.8728 759.131 72.6195C759.545 73.3528 760.011 73.8595 760.531 74.1395C761.065 74.4061 761.605 74.5395 762.151 74.5395C762.698 74.5395 763.238 74.4061 763.771 74.1395C764.305 73.8595 764.778 73.3528 765.191 72.6195C765.618 71.8728 765.958 70.8595 766.211 69.5795C766.465 68.2995 766.591 66.6461 766.591 64.6195Z" fill="white"/>
<path d="M646.243 103.599C646.311 103.727 646.373 103.861 646.429 104.001C646.489 104.137 646.547 104.275 646.603 104.415C646.659 104.271 646.717 104.129 646.777 103.989C646.837 103.849 646.901 103.715 646.969 103.587L649.537 98.7815C649.569 98.7215 649.601 98.6735 649.633 98.6375C649.669 98.6015 649.707 98.5755 649.747 98.5595C649.791 98.5435 649.839 98.5335 649.891 98.5295C649.943 98.5255 650.005 98.5235 650.077 98.5235H651.295V107.199H649.873V101.595C649.873 101.491 649.875 101.377 649.879 101.253C649.887 101.129 649.897 101.003 649.909 100.875L647.287 105.795C647.227 105.907 647.149 105.995 647.053 106.059C646.957 106.119 646.845 106.149 646.717 106.149H646.495C646.367 106.149 646.255 106.119 646.159 106.059C646.063 105.995 645.985 105.907 645.925 105.795L643.267 100.857C643.283 100.989 643.293 101.119 643.297 101.247C643.305 101.371 643.309 101.487 643.309 101.595V107.199H641.887V98.5235H643.105C643.177 98.5235 643.239 98.5255 643.291 98.5295C643.343 98.5335 643.389 98.5435 643.429 98.5595C643.473 98.5755 643.513 98.6015 643.549 98.6375C643.585 98.6735 643.619 98.7215 643.651 98.7815L646.243 103.599ZM660.67 107.199H659.422C659.282 107.199 659.166 107.165 659.074 107.097C658.986 107.025 658.922 106.937 658.882 106.833L658.234 105.063H654.64L653.992 106.833C653.96 106.925 653.896 107.009 653.8 107.085C653.708 107.161 653.594 107.199 653.458 107.199H652.204L655.612 98.5235H657.262L660.67 107.199ZM655.054 103.923H657.82L656.764 101.037C656.716 100.909 656.662 100.759 656.602 100.587C656.546 100.411 656.49 100.221 656.434 100.017C656.378 100.221 656.322 100.411 656.266 100.587C656.214 100.763 656.162 100.917 656.11 101.049L655.054 103.923ZM666.213 100.101C666.169 100.189 666.117 100.251 666.057 100.287C666.001 100.323 665.933 100.341 665.853 100.341C665.773 100.341 665.683 100.311 665.583 100.251C665.483 100.187 665.365 100.117 665.229 100.041C665.093 99.9655 664.933 99.8975 664.749 99.8375C664.569 99.7735 664.355 99.7415 664.107 99.7415C663.883 99.7415 663.687 99.7695 663.519 99.8255C663.355 99.8775 663.215 99.9515 663.099 100.047C662.987 100.143 662.903 100.259 662.847 100.395C662.791 100.527 662.763 100.673 662.763 100.833C662.763 101.037 662.819 101.207 662.931 101.343C663.047 101.479 663.199 101.595 663.387 101.691C663.575 101.787 663.789 101.873 664.029 101.949C664.269 102.025 664.513 102.107 664.761 102.195C665.013 102.279 665.259 102.379 665.499 102.495C665.739 102.607 665.953 102.751 666.141 102.927C666.329 103.099 666.479 103.311 666.591 103.563C666.707 103.815 666.765 104.121 666.765 104.481C666.765 104.873 666.697 105.241 666.561 105.585C666.429 105.925 666.233 106.223 665.973 106.479C665.717 106.731 665.403 106.931 665.031 107.079C664.659 107.223 664.233 107.295 663.753 107.295C663.477 107.295 663.205 107.267 662.937 107.211C662.669 107.159 662.411 107.083 662.163 106.983C661.919 106.883 661.689 106.763 661.473 106.623C661.261 106.483 661.071 106.327 660.903 106.155L661.371 105.381C661.415 105.325 661.467 105.279 661.527 105.243C661.591 105.203 661.661 105.183 661.737 105.183C661.837 105.183 661.945 105.225 662.061 105.309C662.177 105.389 662.313 105.479 662.469 105.579C662.629 105.679 662.815 105.771 663.027 105.855C663.243 105.935 663.501 105.975 663.801 105.975C664.261 105.975 664.617 105.867 664.869 105.651C665.121 105.431 665.247 105.117 665.247 104.709C665.247 104.481 665.189 104.295 665.073 104.151C664.961 104.007 664.811 103.887 664.623 103.791C664.435 103.691 664.221 103.607 663.981 103.539C663.741 103.471 663.497 103.397 663.249 103.317C663.001 103.237 662.757 103.141 662.517 103.029C662.277 102.917 662.063 102.771 661.875 102.591C661.687 102.411 661.535 102.187 661.419 101.919C661.307 101.647 661.251 101.313 661.251 100.917C661.251 100.601 661.313 100.293 661.437 99.9935C661.565 99.6935 661.749 99.4275 661.989 99.1955C662.233 98.9635 662.531 98.7775 662.883 98.6375C663.235 98.4975 663.637 98.4275 664.089 98.4275C664.601 98.4275 665.073 98.5075 665.505 98.6675C665.937 98.8275 666.305 99.0515 666.609 99.3395L666.213 100.101ZM674.111 98.5235V99.8495H671.501V107.199H669.887V99.8495H667.265V98.5235H674.111ZM680.605 98.5235V99.8075H676.759V102.213H679.789V103.455H676.759V105.909H680.605V107.199H675.133V98.5235H680.605ZM683.669 103.809V107.199H682.055V98.5235H684.701C685.293 98.5235 685.799 98.5855 686.219 98.7095C686.643 98.8295 686.989 98.9995 687.257 99.2195C687.529 99.4395 687.727 99.7035 687.851 100.011C687.979 100.315 688.043 100.651 688.043 101.019C688.043 101.311 687.999 101.587 687.911 101.847C687.827 102.107 687.703 102.343 687.539 102.555C687.379 102.767 687.179 102.953 686.939 103.113C686.703 103.273 686.433 103.401 686.129 103.497C686.333 103.613 686.509 103.779 686.657 103.995L688.829 107.199H687.377C687.237 107.199 687.117 107.171 687.017 107.115C686.921 107.059 686.839 106.979 686.771 106.875L684.947 104.097C684.879 103.993 684.803 103.919 684.719 103.875C684.639 103.831 684.519 103.809 684.359 103.809H683.669ZM683.669 102.651H684.677C684.981 102.651 685.245 102.613 685.469 102.537C685.697 102.461 685.883 102.357 686.027 102.225C686.175 102.089 686.285 101.929 686.357 101.745C686.429 101.561 686.465 101.359 686.465 101.139C686.465 100.699 686.319 100.361 686.027 100.125C685.739 99.8895 685.297 99.7715 684.701 99.7715H683.669V102.651ZM695.535 105.153C695.623 105.153 695.699 105.187 695.763 105.255L696.399 105.945C696.047 106.381 695.613 106.715 695.097 106.947C694.585 107.179 693.969 107.295 693.249 107.295C692.605 107.295 692.025 107.185 691.509 106.965C690.997 106.745 690.559 106.439 690.195 106.047C689.831 105.655 689.551 105.187 689.355 104.643C689.163 104.099 689.067 103.505 689.067 102.861C689.067 102.209 689.175 101.613 689.391 101.073C689.607 100.529 689.911 100.061 690.303 99.6695C690.695 99.2775 691.163 98.9735 691.707 98.7575C692.255 98.5375 692.859 98.4275 693.519 98.4275C694.163 98.4275 694.725 98.5315 695.205 98.7395C695.689 98.9435 696.103 99.2155 696.447 99.5555L695.907 100.305C695.875 100.353 695.833 100.395 695.781 100.431C695.733 100.467 695.665 100.485 695.577 100.485C695.485 100.485 695.391 100.449 695.295 100.377C695.199 100.305 695.077 100.227 694.929 100.143C694.781 100.059 694.593 99.9815 694.365 99.9095C694.141 99.8375 693.855 99.8015 693.507 99.8015C693.099 99.8015 692.723 99.8735 692.379 100.017C692.039 100.157 691.745 100.359 691.497 100.623C691.253 100.887 691.061 101.209 690.921 101.589C690.785 101.965 690.717 102.389 690.717 102.861C690.717 103.349 690.785 103.783 690.921 104.163C691.061 104.543 691.249 104.863 691.485 105.123C691.721 105.383 691.999 105.583 692.319 105.723C692.639 105.859 692.983 105.927 693.351 105.927C693.571 105.927 693.769 105.915 693.945 105.891C694.125 105.867 694.289 105.829 694.437 105.777C694.589 105.725 694.731 105.659 694.863 105.579C694.999 105.495 695.133 105.393 695.265 105.273C695.305 105.237 695.347 105.209 695.391 105.189C695.435 105.165 695.483 105.153 695.535 105.153ZM699.236 105.867H702.71V107.199H697.622V98.5235H699.236V105.867ZM711.447 107.199H710.199C710.059 107.199 709.943 107.165 709.851 107.097C709.763 107.025 709.699 106.937 709.659 106.833L709.011 105.063H705.417L704.769 106.833C704.737 106.925 704.673 107.009 704.577 107.085C704.485 107.161 704.371 107.199 704.235 107.199H702.981L706.389 98.5235H708.039L711.447 107.199ZM705.831 103.923H708.597L707.541 101.037C707.493 100.909 707.439 100.759 707.379 100.587C707.323 100.411 707.267 100.221 707.211 100.017C707.155 100.221 707.099 100.411 707.043 100.587C706.991 100.763 706.939 100.917 706.887 101.049L705.831 103.923ZM716.99 100.101C716.946 100.189 716.894 100.251 716.834 100.287C716.778 100.323 716.71 100.341 716.63 100.341C716.55 100.341 716.46 100.311 716.36 100.251C716.26 100.187 716.142 100.117 716.006 100.041C715.87 99.9655 715.71 99.8975 715.526 99.8375C715.346 99.7735 715.132 99.7415 714.884 99.7415C714.66 99.7415 714.464 99.7695 714.296 99.8255C714.132 99.8775 713.992 99.9515 713.876 100.047C713.764 100.143 713.68 100.259 713.624 100.395C713.568 100.527 713.54 100.673 713.54 100.833C713.54 101.037 713.596 101.207 713.708 101.343C713.824 101.479 713.976 101.595 714.164 101.691C714.352 101.787 714.566 101.873 714.806 101.949C715.046 102.025 715.29 102.107 715.538 102.195C715.79 102.279 716.036 102.379 716.276 102.495C716.516 102.607 716.73 102.751 716.918 102.927C717.106 103.099 717.256 103.311 717.368 103.563C717.484 103.815 717.542 104.121 717.542 104.481C717.542 104.873 717.474 105.241 717.338 105.585C717.206 105.925 717.01 106.223 716.75 106.479C716.494 106.731 716.18 106.931 715.808 107.079C715.436 107.223 715.01 107.295 714.53 107.295C714.254 107.295 713.982 107.267 713.714 107.211C713.446 107.159 713.188 107.083 712.94 106.983C712.696 106.883 712.466 106.763 712.25 106.623C712.038 106.483 711.848 106.327 711.68 106.155L712.148 105.381C712.192 105.325 712.244 105.279 712.304 105.243C712.368 105.203 712.438 105.183 712.514 105.183C712.614 105.183 712.722 105.225 712.838 105.309C712.954 105.389 713.09 105.479 713.246 105.579C713.406 105.679 713.592 105.771 713.804 105.855C714.02 105.935 714.278 105.975 714.578 105.975C715.038 105.975 715.394 105.867 715.646 105.651C715.898 105.431 716.024 105.117 716.024 104.709C716.024 104.481 715.966 104.295 715.85 104.151C715.738 104.007 715.588 103.887 715.4 103.791C715.212 103.691 714.998 103.607 714.758 103.539C714.518 103.471 714.274 103.397 714.026 103.317C713.778 103.237 713.534 103.141 713.294 103.029C713.054 102.917 712.84 102.771 712.652 102.591C712.464 102.411 712.312 102.187 712.196 101.919C712.084 101.647 712.028 101.313 712.028 100.917C712.028 100.601 712.09 100.293 712.214 99.9935C712.342 99.6935 712.526 99.4275 712.766 99.1955C713.01 98.9635 713.308 98.7775 713.66 98.6375C714.012 98.4975 714.414 98.4275 714.866 98.4275C715.378 98.4275 715.85 98.5075 716.282 98.6675C716.714 98.8275 717.082 99.0515 717.386 99.3395L716.99 100.101ZM723.424 100.101C723.38 100.189 723.328 100.251 723.268 100.287C723.212 100.323 723.144 100.341 723.064 100.341C722.984 100.341 722.894 100.311 722.794 100.251C722.694 100.187 722.576 100.117 722.44 100.041C722.304 99.9655 722.144 99.8975 721.96 99.8375C721.78 99.7735 721.566 99.7415 721.318 99.7415C721.094 99.7415 720.898 99.7695 720.73 99.8255C720.566 99.8775 720.426 99.9515 720.31 100.047C720.198 100.143 720.114 100.259 720.058 100.395C720.002 100.527 719.974 100.673 719.974 100.833C719.974 101.037 720.03 101.207 720.142 101.343C720.258 101.479 720.41 101.595 720.598 101.691C720.786 101.787 721 101.873 721.24 101.949C721.48 102.025 721.724 102.107 721.972 102.195C722.224 102.279 722.47 102.379 722.71 102.495C722.95 102.607 723.164 102.751 723.352 102.927C723.54 103.099 723.69 103.311 723.802 103.563C723.918 103.815 723.976 104.121 723.976 104.481C723.976 104.873 723.908 105.241 723.772 105.585C723.64 105.925 723.444 106.223 723.184 106.479C722.928 106.731 722.614 106.931 722.242 107.079C721.87 107.223 721.444 107.295 720.964 107.295C720.688 107.295 720.416 107.267 720.148 107.211C719.88 107.159 719.622 107.083 719.374 106.983C719.13 106.883 718.9 106.763 718.684 106.623C718.472 106.483 718.282 106.327 718.114 106.155L718.582 105.381C718.626 105.325 718.678 105.279 718.738 105.243C718.802 105.203 718.872 105.183 718.948 105.183C719.048 105.183 719.156 105.225 719.272 105.309C719.388 105.389 719.524 105.479 719.68 105.579C719.84 105.679 720.026 105.771 720.238 105.855C720.454 105.935 720.712 105.975 721.012 105.975C721.472 105.975 721.828 105.867 722.08 105.651C722.332 105.431 722.458 105.117 722.458 104.709C722.458 104.481 722.4 104.295 722.284 104.151C722.172 104.007 722.022 103.887 721.834 103.791C721.646 103.691 721.432 103.607 721.192 103.539C720.952 103.471 720.708 103.397 720.46 103.317C720.212 103.237 719.968 103.141 719.728 103.029C719.488 102.917 719.274 102.771 719.086 102.591C718.898 102.411 718.746 102.187 718.63 101.919C718.518 101.647 718.462 101.313 718.462 100.917C718.462 100.601 718.524 100.293 718.648 99.9935C718.776 99.6935 718.96 99.4275 719.2 99.1955C719.444 98.9635 719.742 98.7775 720.094 98.6375C720.446 98.4975 720.848 98.4275 721.3 98.4275C721.812 98.4275 722.284 98.5075 722.716 98.6675C723.148 98.8275 723.516 99.0515 723.82 99.3395L723.424 100.101ZM730.68 98.5235V99.8075H726.834V102.213H729.864V103.455H726.834V105.909H730.68V107.199H725.208V98.5235H730.68ZM736.725 100.101C736.681 100.189 736.629 100.251 736.569 100.287C736.513 100.323 736.445 100.341 736.365 100.341C736.285 100.341 736.195 100.311 736.095 100.251C735.995 100.187 735.877 100.117 735.741 100.041C735.605 99.9655 735.445 99.8975 735.261 99.8375C735.081 99.7735 734.867 99.7415 734.619 99.7415C734.395 99.7415 734.199 99.7695 734.031 99.8255C733.867 99.8775 733.727 99.9515 733.611 100.047C733.499 100.143 733.415 100.259 733.359 100.395C733.303 100.527 733.275 100.673 733.275 100.833C733.275 101.037 733.331 101.207 733.443 101.343C733.559 101.479 733.711 101.595 733.899 101.691C734.087 101.787 734.301 101.873 734.541 101.949C734.781 102.025 735.025 102.107 735.273 102.195C735.525 102.279 735.771 102.379 736.011 102.495C736.251 102.607 736.465 102.751 736.653 102.927C736.841 103.099 736.991 103.311 737.103 103.563C737.219 103.815 737.277 104.121 737.277 104.481C737.277 104.873 737.209 105.241 737.073 105.585C736.941 105.925 736.745 106.223 736.485 106.479C736.229 106.731 735.915 106.931 735.543 107.079C735.171 107.223 734.745 107.295 734.265 107.295C733.989 107.295 733.717 107.267 733.449 107.211C733.181 107.159 732.923 107.083 732.675 106.983C732.431 106.883 732.201 106.763 731.985 106.623C731.773 106.483 731.583 106.327 731.415 106.155L731.883 105.381C731.927 105.325 731.979 105.279 732.039 105.243C732.103 105.203 732.173 105.183 732.249 105.183C732.349 105.183 732.457 105.225 732.573 105.309C732.689 105.389 732.825 105.479 732.981 105.579C733.141 105.679 733.327 105.771 733.539 105.855C733.755 105.935 734.013 105.975 734.313 105.975C734.773 105.975 735.129 105.867 735.381 105.651C735.633 105.431 735.759 105.117 735.759 104.709C735.759 104.481 735.701 104.295 735.585 104.151C735.473 104.007 735.323 103.887 735.135 103.791C734.947 103.691 734.733 103.607 734.493 103.539C734.253 103.471 734.009 103.397 733.761 103.317C733.513 103.237 733.269 103.141 733.029 103.029C732.789 102.917 732.575 102.771 732.387 102.591C732.199 102.411 732.047 102.187 731.931 101.919C731.819 101.647 731.763 101.313 731.763 100.917C731.763 100.601 731.825 100.293 731.949 99.9935C732.077 99.6935 732.261 99.4275 732.501 99.1955C732.745 98.9635 733.043 98.7775 733.395 98.6375C733.747 98.4975 734.149 98.4275 734.601 98.4275C735.113 98.4275 735.585 98.5075 736.017 98.6675C736.449 98.8275 736.817 99.0515 737.121 99.3395L736.725 100.101Z" fill="white"/>
</svg>
